<svg class="icon" width="200" height="200" viewBox="0 0 1024 1024" xmlns="http://www.w3.org/2000/svg"><path fill="#d7d7d7" d="M951.631 154.966H824.023v52.865H745.7v-52.865H266.24v52.865h-78.324v-52.865H60.235v751.522c0 42.296 34.394 76.763 76.762 76.763H875.09c42.295 0 76.762-34.467 76.762-76.763l-.221-751.522zm-603.483 800.57h-211.15c-27.023 0-49.033-21.996-49.033-49.033v-155.13h260.183v204.162zm0-231.923H87.965v-203.81h260.183v203.81zm0-231.57H87.965s.767-202.305.929-203.882h259.254v203.883zm288.046 463.492h-260.3V751.372h260.3v204.163zm0-231.922h-260.3v-203.81h260.3v203.81zm0-231.57h-260.3V288.162h260.3v203.883zm287.928 414.445c0 27.008-21.995 49.033-49.032 49.033H663.924V751.372h260.198v155.116zm0-182.875H663.924v-203.81h260.198v203.81zm-260.198-231.57V288.162h259.284c.177 1.577.914 203.883.914 203.883H663.924zM211.047 19.487h32.064v165.539h-32.064V19.485zm558.15 0h32.08v165.539h-32.08V19.485z"/></svg>