<svg class="icon" width="200" height="199.8" viewBox="0 0 1025 1024" xmlns="http://www.w3.org/2000/svg"><path fill="#d7d7d7" d="M1024.297 451.69c-.626 6.93-1.319 13.855-1.87 20.791-2.953 37.26-11.74 73.141-25.518 107.827-23.436 59-59.12 109.709-105.257 152.982-73.634 69.06-161.002 111.503-259.409 132.103-35.121 7.352-70.63 11.153-106.487 12.104-2.489.066-5.574 1.34-7.295 3.108-43.148 44.356-93.643 78.755-147.502 108.444-20.22 11.146-41.077 21.2-61.987 31.02-23.016 10.808-47.729-1.61-52.547-25.75-1.554-7.783.185-15.114 2.799-22.458 10.474-29.427 20.86-58.888 31.04-88.419 2.158-6.26 3.082-12.937 5.027-19.285 1.025-3.347.038-5.089-2.544-7.078-25.58-19.712-51.217-39.355-76.54-59.397-25.835-20.448-52.289-40.257-76.79-62.222C83.47 685.3 42.538 624.75 19.154 552.966 9.012 521.828 3.141 489.822 1.8 457.039c-.087-2.123-.526-4.233-.8-6.348v-22.984c.256-1.612.606-3.218.756-4.838 1.104-11.918 1.77-23.894 3.32-35.753 5.473-41.924 18.21-81.68 37.11-119.414C72.6 206.98 115.565 156.448 169.177 115.15 257.483 47.123 358.095 11.359 468.837 2.941c8.276-.63 16.55-1.295 24.824-1.942h37.974c1.8.247 3.59.546 5.395.731 24.8 2.557 49.783 3.963 74.368 7.87 55.842 8.873 109.164 26.181 159.618 51.86 84.257 42.884 152.891 102.85 200.71 185.192 26.712 45.995 43.374 95.487 49.621 148.37 1.283 10.86 1.982 21.788 2.95 32.685v23.983zM352.876 921.84l5.01-3.048c28.706-17.459 54.738-38.44 79.64-60.856 14.724-13.254 28.988-27.016 43.636-40.355 10.298-9.38 22.02-14.643 36.557-14.469 14.938.18 29.936-1.143 44.843-2.518 50.726-4.674 99.572-17.058 146.362-37.177 68.554-29.476 127.404-71.927 172.464-131.984 48.139-64.163 71.457-136.047 65.13-216.723-2.787-35.522-11.687-69.493-26.464-101.83-32.315-70.71-83.94-124.162-149.5-164.597-61.73-38.072-129.14-59.79-201.155-67.65-47.124-5.142-94.083-4.033-140.825 3.623-54.269 8.889-105.824 25.994-154.092 52.549-63.087 34.706-115.134 81.242-152.282 143.438-26.123 43.742-41.137 91.135-44.098 142.039-2.736 47.019 5.248 92.541 21.785 136.513 23.285 61.912 58.85 115.31 110.085 157.847 44.443 36.898 91.721 69.607 142.402 97.311 9.211 5.036 13.273 12.457 14.355 22.345 1.637 14.951-.667 29.59-3.743 44.08-2.886 13.61-6.562 27.051-10.11 41.463zm160.322-511.713c-71.1 0-142.2-.022-213.3.025-10.433.007-20.098-1.942-28.385-8.845-11.847-9.867-16.747-25.825-12.215-40.527 4.567-14.818 17.447-25.366 32.767-26.778 2.152-.199 4.324-.234 6.487-.234 143.031-.01 286.064.022 429.095-.049 16.88-.009 29.625 6.669 37.353 21.86 11.692 22.982-4.85 52.2-30.53 54.105-3.648.27-7.313.424-10.972.425-70.1.026-140.2.018-210.3.018zm-.032 102.595c54.627 0 109.255-.016 163.883.01 16.152.009 28.67 6.491 36.335 21.092 12.222 23.28-3.433 52.19-29.67 54.838-3.799.385-7.632.608-11.45.609-107.09.031-214.18.01-321.27.047-12.514.004-23.819-3.044-32.303-12.785-10.618-12.188-13.054-26.205-6.585-40.929 6.58-14.98 18.93-22.362 35.18-22.812 11.152-.31 22.317-.07 33.475-.07h132.405z"/></svg>