
<svg width="22px" height="23px" viewBox="0 0 22 23" version="1.1" xmlns="http://www.w3.org/2000/svg" xmlns:xlink="http://www.w3.org/1999/xlink">
    <!-- Generator: Sketch 46.2 (44496) - http://www.bohemiancoding.com/sketch -->
    <desc>Created with Sketch.</desc>
    <defs></defs>
    <g id="帖子详情页" stroke="none" stroke-width="1" fill="none" fill-rule="evenodd" fill-opacity="0.6">
        <g transform="translate(-698.000000, -1175.000000)" id="Group-7" fill="#000000">
            <g transform="translate(698.000000, 1175.000000)">
                <path d="M11,0 C4.88895,0 0,5.11106 0,11.5 C0,17.888825 4.88895,23 11,23 C17.11116,23 22,17.888825 22,11.5 C22,10.861175 21.59267,10.4351 20.9814,10.4351 C20.37035,10.4351 19.96302,10.861175 19.96302,11.5 C19.96302,16.61106 15.88884,20.870315 11,20.870315 C6.11116,20.870315 2.03698,16.61106 2.03698,11.5 C2.03698,6.38894 6.11116,2.12957 11,2.12957 C12.62965,2.12957 14.46291,2.555645 15.68523,3.620315 L15.68523,3.833295 L14.66663,5.11106 C14.2593,5.53702 14.66663,6.38894 15.27768,6.38894 L19.96302,6.601805 C20.37035,6.601805 20.77779,5.96298 20.77779,5.53702 L19.35186,0.85192 C19.14814,0.21298 18.33337,0 17.92593,0.638825 L17.11116,1.91659 C15.27768,0.638825 13.24081,0 11,0" id="Fill-1"></path>
            </g>
        </g>
    </g>
</svg>