<svg width="30" height="30" viewBox="0 0 30 30" xmlns="http://www.w3.org/2000/svg"
     xmlns:xlink="http://www.w3.org/1999/xlink">
    <defs>
        <path id="a" d="M0 0h30v30H0z"/>
    </defs>
    <g fill="none" fill-rule="evenodd">
        <path
            d="M27.273 19.09c0 .377-.134.7-.4.965-.266.266-.588.4-.964.4H14.126l-5.944 4.25v-4.25H4.09c-.376 0-.698-.134-.964-.4a1.315 1.315 0 0 1-.4-.964v-15c0-.376.134-.698.4-.964s.588-.4.964-.4h21.818c.376 0 .698.134.964.4s.4.588.4.964v15zM28.8 1.2C28.002.399 27.038 0 25.91 0H4.091C2.96 0 1.998.4 1.199 1.199.399 1.998 0 2.962 0 4.09v15c0 1.129.4 2.093 1.199 2.892.799.8 1.763 1.199 2.892 1.199h1.364V30L15 23.182h10.91c1.128 0 2.092-.4 2.891-1.199.8-.799 1.199-1.763 1.199-2.892v-15c0-1.13-.4-2.093-1.199-2.892z"
            fill="#0CBF79"/>
        <mask id="b" fill="#fff">
            <use xlink:href="#a"/>
        </mask>
        <path fill="#0CBF79" mask="url(#b)"
              d="M6.903 13.807h3.92v-3.92h-3.92zm6.137 0h3.92v-3.92h-3.92zm6.137 0h3.92v-3.92h-3.92z"/>
    </g>
</svg>