<svg xmlns="http://www.w3.org/2000/svg" class="icon" width="200px" height="300.00px" viewBox="0 -80 1024 1024" version="1.1"><path fill="#f99707" d="M511.512906 64.379263c-246.416226 0-446.121594 199.736067-446.121594 446.116477 0 246.385527 199.705368 446.12671 446.121594 446.12671 246.348688 0 446.121594-199.742207 446.121594-446.12671C957.635523 264.11533 757.861594 64.379263 511.512906 64.379263zM510.175445 828.538283c-35.631522 0-64.451918-28.824489-64.451918-64.451918 0-35.595706 28.819372-64.451918 64.451918-64.451918 35.626405 0 64.451918 28.856211 64.451918 64.451918C574.626339 799.713794 545.80185 828.538283 510.175445 828.538283zM594.58081 349.419158c0 0.115634-0.031722 0.231267-0.063445 0.466628l-0.057305 0.204661-0.089028 0.461511-0.026606 0.172939-0.057305 0.346901-0.063445 0.288572c0 0-54.426587 253.323543-54.453193 253.791194 0 0 3.747347-19.083637 0 0.031722-3.747347 19.11536-13.273305 29.596062-29.596062 29.596062-16.349363 0-24.930809-12.113899-29.973662-31.748075s-53.004191-246.060115-53.035914-246.264776c0 0-0.026606-0.089028-0.057305-0.204661l-0.031722-0.199545c-0.031722-0.147356-0.083911-0.293689-0.083911-0.441045l-0.057305-0.346901-0.057305-0.320295c-0.026606-0.083911-0.057305-0.320295-0.057305-0.320295l-0.057305-0.346901-0.057305-0.147356-0.089028-0.493234c0 0-0.031722-0.199545-0.057305-0.288572l-0.057305-0.320295c0 0-0.031722-0.231267-0.089028-0.461511 0 0 0-0.089028-0.026606-0.178055l-0.031722-0.231267c0 0-0.083911-0.288572-0.115634-0.435928l-0.057305-0.346901-0.057305-0.325411-0.057305-0.288572-0.057305-0.346901-0.031722-0.172939-0.089028-0.461511-0.057305-0.325411c0 0-0.052189-0.231267-0.052189-0.346901-1.159406-5.637394-1.799996-11.499915-1.799996-17.483186 0-47.634904 38.534642-86.206384 86.201268-86.206384 47.661509 0 86.206384 38.571481 86.206384 86.206384C596.381829 337.920266 595.741239 343.782787 594.58081 349.419158z"/></svg>