<svg class="icon" width="200" height="200" viewBox="0 0 1024 1024" xmlns="http://www.w3.org/2000/svg"><path fill="#0cbf79" d="M244.193 331.786c24.607 24.679 64.574 24.679 89.18 0 24.679-24.596 24.679-64.573 0-89.252l-89.251-89.241c-24.597-24.679-64.574-24.607-89.242 0-24.678 24.596-24.678 64.573 0 89.241l89.313 89.252zm0 357.13l-89.241 89.314c-24.679 24.535-24.679 64.573 0 89.18 24.596 24.668 64.645 24.668 89.241 0l89.252-89.18c24.679-24.74 24.607-64.645 0-89.314-24.607-24.678-64.584-24.678-89.252 0zm15.289-178.575c0-34.836-28.212-63.12-63.13-63.12H70.103c-34.918 0-63.13 28.284-63.13 63.12 0 34.785 28.212 63.13 63.13 63.13h126.249c34.929 0 63.13-28.345 63.13-63.13zm520.396-178.555l89.18-89.252c24.679-24.596 24.597-64.563 0-89.241-24.606-24.679-64.645-24.679-89.18 0l-89.313 89.241c-24.678 24.607-24.678 64.646 0 89.252 24.668 24.679 64.492 24.679 89.313 0zm0 357.13c-24.811-24.678-64.645-24.678-89.313 0-24.678 24.669-24.678 64.502 0 89.314l89.313 89.18c24.535 24.668 64.502 24.596 89.18 0 24.679-24.607 24.679-64.645 0-89.18l-89.18-89.314zm174.019-241.694h-126.26c-34.764 0-63.119 28.283-63.119 63.12 0 34.784 28.355 63.129 63.12 63.129h126.259c34.775 0 63.13-28.355 63.13-63.13 0-34.836-28.355-63.12-63.13-63.12zM512 762.86c-34.918 0-63.12 28.354-63.12 63.119v126.27c0 34.774 28.212 63.129 63.12 63.129 34.775 0 63.13-28.355 63.13-63.13v-126.27c0-34.764-28.355-63.118-63.13-63.118zm0-757.535c-34.918 0-63.12 28.283-63.12 63.13v126.248c0 34.847 28.212 63.13 63.12 63.13 34.775 0 63.13-28.283 63.13-63.13V68.454c0-34.846-28.355-63.13-63.13-63.13z"/></svg>