<svg width="30" height="32" viewBox="0 0 30 32" xmlns="http://www.w3.org/2000/svg"><g fill="#C0C0C0" fill-rule="evenodd"><path d="M24 27c0 .414-.147.768-.44 1.06-.292.293-.646.44-1.06.44h-15c-.414 0-.768-.147-1.06-.44A1.446 1.446 0 0 1 6 27V9h18v18zM10.5 4.5c0-.414.147-.768.44-1.06.292-.293.646-.44 1.06-.44h6c.414 0 .768.147 1.06.44.293.292.44.646.44 1.06V6h-9V4.5zm19.06 1.94A1.446 1.446 0 0 0 28.5 6h-6V4.5c0-1.242-.44-2.303-1.319-3.181C20.302.439 19.242 0 18 0h-6c-1.242 0-2.303.44-3.181 1.319C7.939 2.196 7.5 3.258 7.5 4.5V6h-6c-.414 0-.768.147-1.06.44A1.44 1.44 0 0 0 0 7.5c0 .414.147.768.44 1.06.292.293.646.44 1.06.44H3v18c0 1.242.44 2.302 1.319 3.181.878.88 1.939 1.319 3.181 1.319h15c1.242 0 2.302-.44 3.181-1.319C26.561 29.302 27 28.242 27 27V9h1.5c.414 0 .768-.147 1.06-.44.293-.292.44-.646.44-1.06 0-.414-.147-.768-.44-1.06z"/><path d="M11.708 24.721a1.5 1.5 0 0 0 1.5-1.5V13.93a1.5 1.5 0 0 0-3 0v9.292a1.5 1.5 0 0 0 1.5 1.5m6.584-.001a1.5 1.5 0 0 0 1.5-1.5V13.93a1.5 1.5 0 0 0-3 0v9.292a1.5 1.5 0 0 0 1.5 1.5"/></g></svg>