<svg width="38" height="33" viewBox="0 0 38 33" xmlns="http://www.w3.org/2000/svg"><path d="M19 32.126c.899.011 1.186-.481 1.186-.481l14.949-14.947a9.65 9.65 0 0 0 2.133-3.204c.489-1.2.732-2.437.732-3.711 0-1.776-.437-3.411-1.313-4.91a9.725 9.725 0 0 0-3.56-3.56C31.63.439 29.993 0 28.22 0a9.751 9.751 0 0 0-3.71.732 9.632 9.632 0 0 0-3.203 2.133L19 5.172l-2.305-2.307A9.621 9.621 0 0 0 13.494.726 9.767 9.767 0 0 0 9.78 0C8.007 0 6.37.437 4.87 1.313a9.74 9.74 0 0 0-3.56 3.56C.437 6.372 0 8.007 0 9.783a9.7 9.7 0 0 0 .732 3.71 9.632 9.632 0 0 0 2.133 3.205l14.949 14.947s.407.472 1.185.481" fill="#0CBF79" fill-rule="evenodd"/></svg>