<svg width="122" height="38" viewBox="0 0 122 38" xmlns="http://www.w3.org/2000/svg"><g fill="none"><path d="M121.16 14.504l-3.476-2.088-.8.28h-5.704c.28-.8.564-1.6.8-2.428h9.176V4.812h-7.848c.312-1.836.552-3.868.552-3.868L108.276 0a54.124 54.124 0 0 1-1.688 9.2V6.208h-4.16V.472L96.808 0v6.208h-4.336v5.452h2.568c-.16 8-.564 16.676-4.536 22.368a14.572 14.572 0 0 1 4.056 3.74 23.38 23.38 0 0 0 2.4-4.536 13.66 13.66 0 0 1 1.124 4.616c4.376.12 5.468-.512 6.584-2.108 1.528-2.184 1.808-18.624 1.808-18.624l.08-1.788h-6.336c.08-1.232.12-2.468.16-3.66h5.38a18.028 18.028 0 0 1-1.084 2.14 29.512 29.512 0 0 1 3.412 2.028v1.832h5.6l-.824 1.26h-1.628v3.712h-4.124v5.132h4.108v4.336c0 .436-.16.516-.684.556-.524.04-2.06 0-3.424-.08a19.468 19.468 0 0 1 1.484 5.252c6.864 0 8.04-1.116 8.04-5.6v-4.46h4.516v-5.132h-4.508v-.956l4.516-7.184zm-20 6.032c-.24 7.96-.56 10.904-1.084 11.66a1.124 1.124 0 0 1-1.084.636 15.656 15.656 0 0 1-1.808-.08c1.444-3.78 2.248-8 2.648-12.22l1.328.004z" fill="#808181"/><path d="M92.852 14.748c-1.364-1.2-4.216-2.588-6.344-3.384l-3.2 4.26c2.168.952 4.888 2.584 6.132 3.784l3.412-4.66zM93.8 4.012c-1.404-1.232-4.256-2.708-6.424-3.54l-3.252 4.22c2.168.996 4.98 2.708 6.224 3.94l3.452-4.62zm-.948 20.344l-4.736-2.864a124.22 124.22 0 0 1-4.776 13.116l5.2 2.676s.248-.592.456-1.164c1.208-3.112 2.612-7.388 3.856-11.764zM59.784 9.912c-1.336-.068-6.216-.4-6.216-.4-.908 3.2-3.56 5.712-10.972 6.4a15.6 15.6 0 0 1 2.972 4.696c8.384-1.3 12.596-5.6 14.216-10.696zm20.672 4.644h-9.272c-1.284 0-1.528-.12-1.528-1.236V9.892l-5.78-.296v4.468c0 4.344 1.2 5.78 6.428 5.78h9.472l.68-5.288zM44.016 3.788H79.04V8.52H44.016z" fill="#808181"/><path fill="#808181" d="M64.84 4.732h-6.628V0l6.628.472zm-20.824 2.84h5.68v4.732h-5.68zm29.34 0h5.68v4.732h-5.68zM44.016 21.32v5.34h28.596c-.488 4.8-2.164 5.248-3.4 5.248-1.088 0-3.3 0-5.716-.2a14.168 14.168 0 0 1 2.104 6.14c7.708 0 13.012-1.028 13.44-16.532l-35.024.004z"/><path d="M56.276 17.176c0 11.2-5.76 14.656-13.676 15.852 1.164 1.156 2.756 3.356 3.28 4.832 10-2 16.692-7.224 17.16-20.332" fill="#808181"/><path d="M18.932 0C8.477.007.007 8.487.012 18.941c.005 10.455 8.484 18.927 18.939 18.923 10.454-.004 18.927-8.481 18.925-18.936A18.932 18.932 0 0 0 18.932 0zm0 30.36a11.432 11.432 0 1 1 11.432-11.432c0 6.314-5.118 11.432-11.432 11.432z" fill="#007852"/><path d="M36.676 37.192l-17.328-9.944a.364.364 0 0 1-.076-.576l7.404-7.404a.364.364 0 0 1 .576.076l9.94 17.348a.364.364 0 0 1-.516.5z" fill="#AC162C"/></g></svg>