<svg class="icon" width="200" height="199.8" viewBox="0 0 1025 1024" xmlns="http://www.w3.org/2000/svg"><path fill="#d7d7d7" d="M994.336 141.856l-92.096-91.84c-25.408-25.376-66.656-25.376-92.096 0L672 233.696c-21.088 31.072-25.408 66.464 0 91.84l56.384 56.224c-41.792 56-91.968 117.056-148.448 173.376-63.872 63.68-134.912 121.568-198.784 169.12l-54.496-54.304c-25.408-25.376-60.896-21.088-92.096 0L50.368 807.712c-30.88 21.28-25.44 66.464 0 91.84l92.096 91.808c50.88 50.752 117.024 34.496 184.192 0 0 0 203.296-113.792 377.344-287.36 163.712-163.264 290.336-378.464 290.336-378.464 26.4-72.416 50.88-132.96 0-183.68"/></svg>