<svg width="26" height="26" viewBox="0 0 26 26" xmlns="http://www.w3.org/2000/svg" xmlns:xlink="http://www.w3.org/1999/xlink"><defs><path id="a" d="M0 .7h25.3V26H0z"/><linearGradient x1="50%" y1="0%" x2="50%" y2="100%" id="b"><stop stop-color="#3CC97A" offset="0%"/><stop stop-color="#30A961" offset="100%"/></linearGradient></defs><g fill="none" fill-rule="evenodd"><g transform="translate(0 .003)"><mask id="c" fill="#fff"><use xlink:href="#a"/></mask><path d="M25.3 13.35C25.3 20.336 19.637 26 12.65 26 5.664 26 0 20.336 0 13.35 0 6.364 5.664.7 12.65.7 19.637.7 25.3 6.364 25.3 13.35" fill="url(#b)" mask="url(#c)"/></g><path d="M12.65 18.147a4.793 4.793 0 1 1 4.434-2.972l-1.044-1.822-3.39 3.39 1.823 1.044c-.562.23-1.177.36-1.823.36zm6.218.14a7.94 7.94 0 1 0-1.283 1.283l3.004 1.722-1.721-3.005z" fill="#FFF"/></g></svg>