<svg xmlns="http://www.w3.org/2000/svg" class="icon" width="200" height="200" viewBox="0 0 1024 1024"><path fill="#bfbfbf" d="M511.716 160.644c-193.885 0-351.09 157.17-351.09 351.089s157.206 351.09 351.09 351.09 351.09-157.172 351.09-351.09-157.206-351.09-351.09-351.09zm178.303 529.392c-2.497 2.497-5.771 3.746-9.045 3.746s-6.547-1.25-9.045-3.746L511.716 529.823 351.504 690.037c-2.498 2.497-5.771 3.746-9.045 3.746s-6.547-1.25-9.045-3.746c-4.995-4.996-4.995-13.094 0-18.09l160.212-160.213L333.414 351.52c-4.995-4.995-4.995-13.094 0-18.09 4.996-4.996 13.094-4.996 18.09 0l160.213 160.212L671.93 333.43c4.995-4.996 13.095-4.996 18.09 0 4.996 4.995 4.996 13.094 0 18.09L529.806 511.733l160.213 160.213c4.996 4.996 4.996 13.094 0 18.09z"/></svg>