<svg width="40" height="33" viewBox="0 0 40 33" xmlns="http://www.w3.org/2000/svg" xmlns:xlink="http://www.w3.org/1999/xlink"><defs><path id="a" d="M0 .161h39.197v32.263H0"/><path id="c" d="M0 .161h39.197v32.263H0z"/></defs><g fill="none" fill-rule="evenodd"><mask id="b" fill="#fff"><use xlink:href="#a"/></mask><path d="M16.173 3.361a5.65 5.65 0 0 1 5.643 5.643 5.65 5.65 0 0 1-5.643 5.647 5.65 5.65 0 0 1-5.644-5.647 5.65 5.65 0 0 1 5.644-5.643m0 14.49c4.876 0 8.843-3.97 8.843-8.847 0-4.877-3.967-8.843-8.843-8.843-4.877 0-8.844 3.966-8.844 8.843s3.967 8.847 8.844 8.847" fill="#959595" mask="url(#b)"/><mask id="d" fill="#fff"><use xlink:href="#c"/></mask><path fill="#959595" mask="url(#d)" d="M28.797 10.982h10.4v-3.2h-10.4zm-1.6-6.021h12v-3.2h-12zm1.951 24.263H3.2v-2.066c0-3.115 7.85-5.643 12.973-5.643 5.123 0 12.975 2.528 12.975 5.643v2.066zm-12.975-10.91C10.71 18.315 0 20.986 0 27.159v5.266h32.348v-5.266c0-6.173-10.71-8.843-16.175-8.843zm11.024-1.732h12v-3.2h-12z"/></g></svg>