<svg width="37" height="10" viewBox="0 0 37 10" xmlns="http://www.w3.org/2000/svg"><path d="M32 3.364c-.452 0-.838.16-1.157.48-.319.318-.48.704-.48 1.156 0 .452.161.838.48 1.157.32.319.705.48 1.157.48.452 0 .838-.161 1.157-.48.319-.32.48-.705.48-1.157 0-.452-.161-.838-.48-1.157A1.58 1.58 0 0 0 32 3.363m-13.09 0c-.453 0-.839.161-1.158.48A1.58 1.58 0 0 0 17.272 5c0 .452.161.838.48 1.157.32.319.705.48 1.157.48.452 0 .838-.161 1.157-.48.32-.32.48-.705.48-1.157 0-.452-.16-.838-.48-1.157a1.58 1.58 0 0 0-1.157-.48m0-3.272c1.355 0 2.512.48 3.47 1.438.96.96 1.44 2.116 1.44 3.471s-.48 2.512-1.44 3.47c-.958.96-2.115 1.44-3.47 1.44s-2.512-.48-3.47-1.44C14.478 7.513 14 6.356 14 5s.48-2.512 1.438-3.47C16.398.57 17.554.09 18.91.09M5.82 3.365c-.452 0-.839.16-1.158.48-.319.318-.48.704-.48 1.156 0 .452.161.838.48 1.157.32.319.706.48 1.157.48.452 0 .838-.161 1.157-.48.32-.32.48-.705.48-1.157 0-.452-.16-.838-.48-1.157a1.578 1.578 0 0 0-1.157-.48m0-3.272c1.355 0 2.512.48 3.47 1.438.96.96 1.44 2.116 1.44 3.471s-.48 2.512-1.44 3.47c-.958.96-2.115 1.44-3.47 1.44s-2.512-.48-3.47-1.44C1.387 7.513.908 6.356.908 5s.48-2.512 1.438-3.47C3.307.57 4.463.09 5.818.09M32 .09c1.355 0 2.512.48 3.47 1.44.96.958 1.44 2.115 1.44 3.47s-.48 2.512-1.44 3.47c-.958.96-2.115 1.44-3.47 1.44s-2.512-.48-3.47-1.44c-.96-.958-1.44-2.115-1.44-3.47s.48-2.512 1.44-3.47C29.487.57 30.644.09 32 .09" fill="#0CBF79" fill-rule="evenodd"/></svg>