<svg width="38" height="33" viewBox="0 0 38 33" xmlns="http://www.w3.org/2000/svg"><path d="M33.702 12.367a6.135 6.135 0 0 1-1.375 2.063l-12.51 12.512c-.239.15-.504.263-.809.263-.328 0-.614-.125-.866-.297L5.666 14.43a6.135 6.135 0 0 1-1.376-2.063 6.294 6.294 0 0 1-.466-2.382c0-1.146.28-2.2.84-3.162a6.245 6.245 0 0 1 2.283-2.282 6.168 6.168 0 0 1 3.162-.84c.818 0 1.611.154 2.382.466.77.311 1.458.769 2.063 1.375l4.443 4.443 4.445-4.443a6.11 6.11 0 0 1 2.062-1.375 6.285 6.285 0 0 1 2.38-.467c1.147 0 2.2.28 3.162.841a6.245 6.245 0 0 1 2.282 2.282c.56.963.84 2.016.84 3.162 0 .819-.154 1.612-.466 2.382M19 32.126c.9.011 1.187-.481 1.187-.481l14.949-14.947a9.65 9.65 0 0 0 2.133-3.204c.489-1.2.732-2.437.732-3.711 0-1.776-.437-3.411-1.313-4.91a9.725 9.725 0 0 0-3.56-3.56A9.57 9.57 0 0 0 28.22 0a9.751 9.751 0 0 0-3.71.732 9.632 9.632 0 0 0-3.203 2.133L19 5.172l-2.305-2.307A9.621 9.621 0 0 0 13.494.726 9.767 9.767 0 0 0 9.78 0C8.007 0 6.37.437 4.87 1.313a9.74 9.74 0 0 0-3.56 3.56C.437 6.372 0 8.007 0 9.783a9.7 9.7 0 0 0 .732 3.71 9.632 9.632 0 0 0 2.133 3.205l14.949 14.947s.407.472 1.185.481" fill="#0CBF79" fill-rule="evenodd"/></svg>