<svg width="200" height="200" viewBox="0 0 200 200" xmlns="http://www.w3.org/2000/svg"><title>上传失败</title><g fill="none" fill-rule="evenodd"><rect stroke="#D7D7D7" stroke-width="2" x="1" y="1" width="198" height="198" rx="3"/><g fill="#D7D7D7"><path d="M112.156 85.155c-1.532 1.531-3.359 2.751-5.481 3.662A16.753 16.753 0 0 1 100 90.182a16.75 16.75 0 0 1-6.674-1.365c-2.125-.91-3.952-2.13-5.48-3.662-1.532-1.53-2.754-3.358-3.662-5.48A16.753 16.753 0 0 1 82.819 73c0-2.327.454-4.551 1.365-6.674.908-2.123 2.13-3.952 3.661-5.481 1.53-1.531 3.356-2.753 5.481-3.662A16.753 16.753 0 0 1 100 55.818c2.328 0 4.552.455 6.675 1.365 2.122.91 3.95 2.13 5.48 3.662 1.532 1.53 2.752 3.358 3.662 5.481A16.753 16.753 0 0 1 117.182 73c0 2.327-.454 4.551-1.365 6.674-.91 2.123-2.13 3.95-3.661 5.481zm2.707-27.017c-1.875-1.875-4.107-3.368-6.697-4.475A20.526 20.526 0 0 0 100 52c-2.854 0-5.574.554-8.167 1.663-2.588 1.107-4.82 2.6-6.695 4.475-1.875 1.875-3.368 4.106-4.475 6.697A20.526 20.526 0 0 0 79 73c0 2.852.554 5.575 1.663 8.165 1.107 2.591 2.6 4.823 4.475 6.697 1.875 1.875 4.107 3.368 6.695 4.475A20.542 20.542 0 0 0 100 94c2.854 0 5.575-.553 8.166-1.663 2.59-1.107 4.822-2.6 6.697-4.475 1.872-1.874 3.367-4.106 4.475-6.697A20.533 20.533 0 0 0 121 73a20.53 20.53 0 0 0-1.662-8.165c-1.108-2.59-2.603-4.822-4.475-6.697z"/><path d="M101.948 80.388a1.949 1.949 0 1 1-3.898 0 1.949 1.949 0 0 1 3.898 0M100 62.282a1.95 1.95 0 0 0-1.95 1.949v10.2a1.95 1.95 0 0 0 3.9 0v-10.2a1.95 1.95 0 0 0-1.95-1.95"/><text font-family="PingFangSC-Regular, PingFang SC" font-size="28" transform="translate(44 52)"><tspan x="0" y="87">上传失败</tspan></text></g></g></svg>