<svg class="icon" width="200" height="70" viewBox="0 0 1024 1024" xmlns="http://www.w3.org/2000/svg"><path fill="#bfbfbf" d="M512.016 820.934a26.015 26.015 0 0 0 26.495-26.495V538.447h255.992c15.008 0 26.495-11.487 26.495-26.495s-11.487-26.495-26.495-26.495H538.511V229.465c0-15.008-11.487-26.495-26.495-26.495s-26.495 11.487-26.495 26.495v255.992H229.529c-15.008 0-26.495 11.487-26.495 26.495s11.487 26.495 26.495 26.495H485.52V794.44c0 15.008 11.487 26.495 26.495 26.495zM423.731 52.99h176.538c15.008 0 26.495-11.487 26.495-26.495S615.277 0 600.27 0H423.731c-15.008 0-26.495 11.488-26.495 26.495S408.723 52.99 423.73 52.99zM26.527 273.655a26.015 26.015 0 0 0 26.495-26.495V123.58c0-38.847 31.775-70.622 70.622-70.622h123.58c15.008 0 26.495-11.487 26.495-26.495S262.232-.032 247.224-.032h-123.58A123.932 123.932 0 0 0 .064 123.548v123.58c0 15.008 11.488 26.495 26.495 26.495zm0 353.077a26.015 26.015 0 0 0 26.495-26.495V423.7c0-15.008-11.487-26.495-26.495-26.495S.032 408.69.032 423.699v176.538c0 15.008 11.488 26.495 26.495 26.495zm220.665 344.246h-123.58a70.814 70.814 0 0 1-70.622-70.622v-123.58c0-15.008-11.487-26.495-26.495-26.495S0 761.768 0 776.776v123.58a123.932 123.932 0 0 0 123.58 123.58h123.58c15.008 0 26.495-11.488 26.495-26.495s-11.487-26.495-26.495-26.495zm353.11 0h-176.54c-15.007 0-26.494 11.487-26.494 26.495s11.487 26.495 26.495 26.495H600.3c15.008 0 26.495-11.488 26.495-26.495s-11.487-26.495-26.495-26.495zm397.203-220.665a26.015 26.015 0 0 0-26.495 26.495v123.58a70.814 70.814 0 0 1-70.622 70.622h-123.58c-15.008 0-26.495 11.487-26.495 26.495S761.8 1024 776.808 1024h123.58a123.932 123.932 0 0 0 123.58-123.58V776.84a26.015 26.015 0 0 0-26.495-26.495zm0-353.077a26.015 26.015 0 0 0-26.495 26.495v176.538c0 15.008 11.487 26.495 26.495 26.495S1024 615.277 1024 600.27V423.731a26.015 26.015 0 0 0-26.495-26.495zM900.42.032H776.84c-15.008 0-26.495 11.488-26.495 26.495s11.487 26.495 26.495 26.495h123.58c38.847 0 70.622 31.775 70.622 70.622v123.58c0 15.008 11.487 26.495 26.495 26.495s26.495-11.487 26.495-26.495v-123.58A123.932 123.932 0 0 0 900.452.064z"/></svg>