<svg width="30" height="36" viewBox="0 0 30 36" xmlns="http://www.w3.org/2000/svg"><path d="M9 7.5h6c.414 0 .768.147 1.06.44.293.292.44.646.44 1.06 0 .414-.147.768-.44 1.06-.292.293-.646.44-1.06.44H9c-.414 0-.768-.147-1.06-.44A1.446 1.446 0 0 1 7.5 9c0-.414.147-.768.44-1.06.292-.293.646-.44 1.06-.44m0 6h12c.414 0 .768.147 1.06.44.293.292.44.646.44 1.06 0 .414-.147.768-.44 1.06-.292.293-.646.44-1.06.44H9c-.414 0-.768-.147-1.06-.44A1.446 1.446 0 0 1 7.5 15c0-.414.147-.768.44-1.06.292-.293.646-.44 1.06-.44M25.5 3h-21c-.414 0-.768.147-1.06.44-.293.292-.44.646-.44 1.06v27c0 .414.147.768.44 1.06.292.293.646.44 1.06.44h21c.414 0 .768-.147 1.06-.44.293-.292.44-.646.44-1.06v-27c0-.414-.147-.768-.44-1.06A1.446 1.446 0 0 0 25.5 3M9 19.5h12c.414 0 .768.147 1.06.44.293.292.44.646.44 1.06 0 .414-.147.768-.44 1.06-.292.293-.646.44-1.06.44H9c-.414 0-.768-.147-1.06-.44A1.446 1.446 0 0 1 7.5 21c0-.414.147-.768.44-1.06.292-.293.646-.44 1.06-.44m0 6h12c.414 0 .768.147 1.06.44.293.292.44.646.44 1.06 0 .414-.147.768-.44 1.06-.292.293-.646.44-1.06.44H9c-.414 0-.768-.147-1.06-.44A1.446 1.446 0 0 1 7.5 27c0-.414.147-.768.44-1.06.292-.293.646-.44 1.06-.44M4.5 0h21c1.242 0 2.303.44 3.181 1.319C29.561 2.197 30 3.258 30 4.5v27c0 1.242-.44 2.302-1.319 3.181-.878.88-1.939 1.319-3.181 1.319h-21c-1.242 0-2.303-.44-3.181-1.319C.439 33.803 0 32.742 0 31.5v-27c0-1.242.44-2.303 1.319-3.181C2.197.439 3.258 0 4.5 0" fill="#959595" fill-rule="evenodd"/></svg>