<svg class="icon" width="200" height="192.12" viewBox="0 0 1066 1024" xmlns="http://www.w3.org/2000/svg"><path fill="#959592" d="M106.667 170.24v683.52c0 46.933 37.973 84.907 84.906 84.907h683.52c46.934 0 84.907-37.974 84.907-84.907V170.24c0-46.933-37.973-84.907-84.907-84.907h-683.52c-46.933 0-84.906 37.974-84.906 84.907zm-85.334 0A170.197 170.197 0 0 1 191.573 0h683.52a170.197 170.197 0 0 1 170.24 170.24v683.52A170.197 170.197 0 0 1 875.093 1024h-683.52a170.197 170.197 0 0 1-170.24-170.24V170.24zm277.334 171.093a42.667 42.667 0 1 0 0-85.333 42.667 42.667 0 0 0 0 85.333zm0 85.334a128 128 0 1 1 0-256 128 128 0 0 1 0 256zM526.08 756.693a42.667 42.667 0 0 0 55.51-5.248l323.84-337.92a42.667 42.667 0 1 0-61.569-59.05l-298.41 311.338-135.595-96.17a42.667 42.667 0 0 0-54.656 4.437L162.048 764.587a42.667 42.667 0 0 0 59.904 60.757l167.68-165.419 136.49 96.768z"/></svg>