<svg class="icon" width="200" height="200" viewBox="0 0 1024 1024" xmlns="http://www.w3.org/2000/svg"><path fill="#2c2c2c" d="M927.257 176.54c.174-22.081-11.487-29.368-29.914-29.34-246.753.382-493.506.254-740.26.257-22.391 0-29.296 6.987-29.296 29.713-.007 212.373-.007 424.746 0 637.119.001 21.89 7.137 29.075 28.863 29.077 123.198.007 246.394.003 369.592.003 124.273 0 248.545.005 372.817-.005 20.438-.002 27.732-6.63 27.764-26.496.203-128.925.276-257.851.306-386.776.018-84.517-.54-169.038.128-253.551zm-756.28 14.186h712.95V661.64c-4.339-5.43-7.052-9.193-10.134-12.624-18.603-20.706-35.376-43.567-56.328-61.548-51.296-44.024-112.15-46.42-168.15-8.394-15.566 10.57-29.129 24.126-43.37 36.589-3.944 3.452-7.02 7.895-11.616 13.171-9.918-21.799-18.433-41.725-27.94-61.168-23.68-48.433-50.317-95.012-91.13-131.49-31.162-27.85-66.684-44.272-109.83-37.276-32.28 5.234-58.642 22.054-82.386 43.42-34.715 31.24-60.783 69.255-84.343 109.17-8.624 14.61-17.357 29.155-27.722 43.09V190.727zM883.945 800.03H170.614c0-24.647-.637-48.912.283-73.118.424-11.142 2.168-22.859 6.267-33.136 27.255-68.325 59.447-134.054 106.61-191.292 16.449-19.961 34.823-37.934 57.72-50.74 31.667-17.71 62.28-15.844 91.745 4.83 24.746 17.364 43.102 40.699 59.38 65.736 36.718 56.47 61.219 118.639 84.174 181.51 1.823 4.995 3.732 9.957 6.401 17.067 2.802-4.366 4.902-7.327 6.686-10.467 17.955-31.594 38.123-61.464 66.718-84.628 6.653-5.39 13.61-10.523 20.924-14.952 37.99-23 74.372-21 109.84 5.958 27.264 20.72 47.272 47.722 64.451 76.836 10.523 17.833 19.671 36.48 29.315 54.828 1.305 2.481 2.64 5.325 2.69 8.024.268 14.252.127 28.51.127 43.544zM729.842 400.134c30.262-.208 55.19-25.42 55.168-55.797-.023-30.756-24.388-55.196-55.143-55.312-30.517-.116-55.67 24.446-56.071 54.75-.4 30.22 25.8 56.567 56.046 56.36z"/></svg>