<svg xmlns="http://www.w3.org/2000/svg" width="280" height="500" viewBox="0 0 28 50"><path d="M18.626 16.729V10.73h.004c0-.01-.004-.017-.004-.026v-.141h-.016C18.507 8.36 16.46 7 14.53 7c-1.979 0-4.063 1.387-4.063 3.73v3.338l-2.14 3.468h-.041v2.337H9.77l3.001-5.165v-3.977c0-1.01.806-1.356 1.795-1.356.931 0 2.04.314 2.17 1.189h-.023l-.728 8.515 9.206 1.476-3.553 12.118h-6.74l-5.96-1.766-.652.2v2.712H8.7l5.91 1.148 9.464.033 3.888-16.46-9.336-1.811zM0 33.837v-16.29h5.793v16.29H0zM15.007 5.413L16.702 1l2.654 1.97-4.349 2.444zm-2.338-.23L9.445 1.725 12.379.203l.29 4.98zm-2.208 1.87L5.78 7.71l.436-3.277 4.246 2.62z" fill="#0CBF79" fill-rule="evenodd"/></svg>