<svg width="24" height="18" viewBox="0 0 24 18" xmlns="http://www.w3.org/2000/svg"><path d="M12 7c-.552 0-1.023.195-1.414.586A1.926 1.926 0 0 0 10 9c0 .552.195 1.023.586 1.414.391.391.862.586 1.414.586.552 0 1.023-.195 1.414-.586.391-.391.586-.862.586-1.414 0-.552-.195-1.023-.586-1.414A1.926 1.926 0 0 0 12 7zm0-2c1.104 0 2.047.391 2.828 1.172A3.854 3.854 0 0 1 16 9a3.854 3.854 0 0 1-1.172 2.828A3.854 3.854 0 0 1 12 13a3.854 3.854 0 0 1-2.828-1.172A3.854 3.854 0 0 1 8 9c0-1.104.391-2.047 1.172-2.828A3.854 3.854 0 0 1 12 5zm0-3c-.729 0-1.445.097-2.148.289a8.963 8.963 0 0 0-1.902.746c-.565.305-1.117.673-1.656 1.105-.539.432-1.004.858-1.398 1.277-.394.419-.775.87-1.145 1.352-.37.482-.665.895-.883 1.238-.219.344-.424.687-.617 1.031.193.339.398.679.617 1.02.218.341.513.751.883 1.227.37.477.751.922 1.145 1.336.394.414.859.835 1.398 1.262a11.01 11.01 0 0 0 1.656 1.094 9.01 9.01 0 0 0 1.902.738 8.197 8.197 0 0 0 4.296-.004 9.122 9.122 0 0 0 1.902-.742 10.89 10.89 0 0 0 1.656-1.098 13.52 13.52 0 0 0 1.398-1.27c.394-.416.775-.865 1.145-1.344.37-.48.665-.891.883-1.234.219-.343.424-.684.617-1.023-.193-.339-.398-.68-.617-1.023a17.324 17.324 0 0 0-.883-1.234c-.37-.479-.751-.928-1.145-1.344a13.52 13.52 0 0 0-1.398-1.27 10.89 10.89 0 0 0-1.656-1.098 9.122 9.122 0 0 0-1.902-.742A8.118 8.118 0 0 0 12 2zm0-2c1.089 0 2.147.165 3.176.496 1.029.331 1.931.76 2.707 1.289a18.125 18.125 0 0 1 2.191 1.754 13.73 13.73 0 0 1 1.727 1.922c.467.641.87 1.226 1.211 1.754.341.529.592.957.754 1.285L24 9l-.148.316c-.062.132-.209.404-.441.813a20.9 20.9 0 0 1-.742 1.211c-.263.398-.609.867-1.039 1.406-.43.539-.874 1.042-1.332 1.508-.458.466-1.001.936-1.629 1.41-.628.474-1.272.876-1.93 1.207-.658.331-1.4.602-2.223.813A10 10 0 0 1 12 18c-1.089 0-2.147-.165-3.176-.496-1.029-.331-1.931-.759-2.707-1.285a18.425 18.425 0 0 1-2.191-1.742 13.508 13.508 0 0 1-1.727-1.91c-.467-.638-.87-1.22-1.211-1.746a12.822 12.822 0 0 1-.754-1.289L0 9.04l.148-.316c.062-.132.209-.405.441-.816.232-.411.479-.816.742-1.215.263-.399.609-.87 1.039-1.414.43-.544.874-1.05 1.332-1.516a14.81 14.81 0 0 1 1.629-1.414 12.756 12.756 0 0 1 1.93-1.215C7.919.8 8.661.528 9.484.318 10.307.108 11.146.003 12 .002V0z" fill="#848484" fill-rule="evenodd"/></svg>