<svg width="690" height="150" viewBox="0 0 690 150" xmlns="http://www.w3.org/2000/svg" xmlns:xlink="http://www.w3.org/1999/xlink"><defs><path d="M5 0h680a5 5 0 0 1 5 5v140a5 5 0 0 1-5 5H5a5 5 0 0 1-5-5V5a5 5 0 0 1 5-5z" id="a"/></defs><g fill="none" fill-rule="evenodd"><mask id="b" fill="#fff"><use xlink:href="#a"/></mask><use fill="#F4FCF8" xlink:href="#a"/><path stroke="#11BF79" d="M5 .5A4.5 4.5 0 0 0 .5 5v140a4.5 4.5 0 0 0 4.5 4.5h680a4.5 4.5 0 0 0 4.5-4.5V5A4.5 4.5 0 0 0 685 .5H5z"/><g fill="#11BF79" opacity=".2" mask="url(#b)"><path d="M264.5 144a1.5 1.5 0 1 0-.001 3 1.5 1.5 0 0 0 .002-3m-10.001 0a1.5 1.5 0 1 0-.001 3 1.5 1.5 0 0 0 .002-3m-9.001 0a1.5 1.5 0 1 0 0 2.999 1.5 1.5 0 0 0 0-2.999m-11 0a1.5 1.5 0 1 0-.001 2.999A1.5 1.5 0 0 0 234.5 144m-11 0a1.5 1.5 0 1 0-.001 3 1.5 1.5 0 0 0 .002-3m-11.001 0a1.5 1.5 0 1 0-.001 3 1.5 1.5 0 0 0 .002-3m-11.001 0a1.5 1.5 0 1 0 0 2.999 1.5 1.5 0 0 0 0-2.999m63-11a1.5 1.5 0 1 0-.001 3 1.5 1.5 0 0 0 .002-3m-10.001 0a1.5 1.5 0 1 0-.001 3 1.5 1.5 0 0 0 .002-3m-9.001 0a1.5 1.5 0 1 0 0 2.999 1.5 1.5 0 0 0 0-2.999m-11 0a1.5 1.5 0 1 0-.001 2.999A1.5 1.5 0 0 0 234.5 133m-11 0a1.5 1.5 0 1 0-.001 3 1.5 1.5 0 0 0 .002-3m-11.001 0a1.5 1.5 0 1 0-.001 3 1.5 1.5 0 0 0 .002-3m-11.001 0a1.5 1.5 0 1 0 0 2.999 1.5 1.5 0 0 0 0-2.999m63-11a1.5 1.5 0 1 0-.001 3 1.5 1.5 0 0 0 .002-3m-10.001 0a1.5 1.5 0 1 0-.001 3 1.5 1.5 0 0 0 .002-3m-9.001 0a1.5 1.5 0 1 0 0 2.999 1.5 1.5 0 0 0 0-2.999m-11 0a1.5 1.5 0 1 0-.001 2.999A1.5 1.5 0 0 0 234.5 122m-11 0a1.5 1.5 0 1 0-.001 3 1.5 1.5 0 0 0 .002-3m-11.001 0a1.5 1.5 0 1 0-.001 3 1.5 1.5 0 0 0 .002-3m-11.001 0a1.5 1.5 0 1 0 0 2.999 1.5 1.5 0 0 0 0-2.999M498 111.29L595.217 182H598l-98.99-72zm-206 30.038L306.488 177l9.512-4.328L301.512 137zM-6 56.877L2.298 64 28 35.124 19.701 28zM3.98 161.639c24.106-11.909 49.032-24.221 72.063-24.221h.223c23.437.08 49.58 13.221 67.383 24.233 19.334 11.956 33.282 24.053 33.42 24.175l.931-1.068c-.138-.122-14.157-12.284-33.586-24.3C126.45 149.346 100.047 136.083 76.27 136h-.228c-23.365 0-48.437 12.387-72.692 24.369-24.099 11.905-49.017 24.215-72.032 24.215-3.105 0-6.216-.23-9.319-.644v1.417c3.461.46 6.576.643 9.319.643 23.347 0 48.417-12.384 72.661-24.361"/><path d="M3.98 151.639c24.106-11.909 49.031-24.223 72.063-24.223h.223c23.443.082 49.593 13.23 67.4 24.245 19.332 11.957 33.265 24.043 33.403 24.164l.931-1.067c-.138-.122-14.157-12.284-33.586-24.302C126.45 139.344 100.046 126.082 76.27 126h-.229c-23.363 0-48.439 12.387-72.69 24.367-24.1 11.905-49.02 24.215-72.033 24.215-3.107 0-6.216-.23-9.319-.642v1.416c3.461.46 6.576.644 9.319.644 23.347 0 48.417-12.384 72.66-24.361"/><path d="M3.98 143.639c24.106-11.909 49.032-24.223 72.063-24.223.076 0 .148 0 .223.002 23.437.08 49.58 13.221 67.383 24.233 19.334 11.956 33.282 24.053 33.42 24.175l.931-1.068c-.138-.122-14.157-12.284-33.586-24.3C126.45 131.346 100.047 118.083 76.27 118h-.228c-23.365 0-48.437 12.387-72.692 24.369-24.099 11.905-49.017 24.215-72.032 24.215-3.105 0-6.216-.23-9.319-.644v1.417c3.461.46 6.576.643 9.319.643 23.347 0 48.417-12.384 72.661-24.361"/><path d="M3.98 133.639c24.106-11.909 49.031-24.221 72.063-24.221h.223c23.443.08 49.593 13.229 67.4 24.243 19.332 11.958 33.265 24.043 33.403 24.165l.931-1.068c-.138-.122-14.157-12.284-33.586-24.302-17.963-11.11-44.368-24.373-68.143-24.456h-.229c-23.363 0-48.439 12.388-72.69 24.367-24.1 11.907-49.02 24.215-72.033 24.215-3.107 0-6.216-.228-9.319-.642v1.417c3.461.46 6.576.643 9.319.643 23.347 0 48.417-12.384 72.66-24.361"/><path d="M3.98 125.639c24.106-11.909 49.032-24.223 72.063-24.223.076 0 .148 0 .223.002 23.437.08 49.58 13.221 67.383 24.233 19.334 11.956 33.282 24.053 33.42 24.175l.931-1.068c-.138-.122-14.157-12.284-33.586-24.3C126.45 113.346 100.047 100.083 76.27 100h-.228c-23.365 0-48.437 12.387-72.692 24.369-24.099 11.905-49.017 24.215-72.032 24.215-3.105 0-6.216-.23-9.319-.644v1.417c3.461.46 6.576.643 9.319.643 23.347 0 48.417-12.384 72.661-24.361"/><path d="M3.98 115.639c24.106-11.909 49.032-24.223 72.063-24.223.076 0 .148 0 .223.002 23.437.08 49.58 13.221 67.383 24.233 19.334 11.956 33.282 24.053 33.42 24.175l.931-1.068c-.138-.122-14.157-12.284-33.586-24.3C126.45 103.346 100.047 90.083 76.27 90h-.228c-23.365 0-48.437 12.387-72.692 24.369-24.099 11.905-49.017 24.215-72.032 24.215-3.105 0-6.216-.23-9.319-.644v1.417c3.461.46 6.576.643 9.319.643 23.347 0 48.417-12.384 72.661-24.361"/><g><path d="M229.5 7.295c-2.806 0-5.089-2.253-5.089-5.022 0-2.77 2.283-5.023 5.089-5.023 2.806 0 5.089 2.254 5.089 5.023 0 2.77-2.283 5.022-5.089 5.022m0-12.555c-4.142 0-7.5 3.373-7.5 7.533s3.358 7.532 7.5 7.532c4.142 0 7.5-3.372 7.5-7.532s-3.358-7.533-7.5-7.533m404 130.75c-2.806 0-5.089-2.253-5.089-5.022 0-2.77 2.283-5.023 5.089-5.023 2.806 0 5.089 2.254 5.089 5.023 0 2.77-2.283 5.022-5.089 5.022m0-12.555c-4.142 0-7.5 3.373-7.5 7.533s3.358 7.532 7.5 7.532c4.142 0 7.5-3.372 7.5-7.532s-3.358-7.533-7.5-7.533M428 23.312c-.829 0-1.5.674-1.5 1.506 0 .833.671 1.507 1.5 1.507s1.5-.674 1.5-1.507c0-.832-.671-1.506-1.5-1.506m-12 0c-.828 0-1.5.674-1.5 1.506 0 .833.672 1.507 1.5 1.507.829 0 1.5-.674 1.5-1.507 0-.832-.671-1.506-1.5-1.506m-9 0c-.829 0-1.5.674-1.5 1.506 0 .833.671 1.507 1.5 1.507s1.5-.674 1.5-1.507c0-.832-.671-1.506-1.5-1.506m-13.5 0c-.829 0-1.5.674-1.5 1.506 0 .833.671 1.507 1.5 1.507s1.5-.674 1.5-1.507c0-.832-.671-1.506-1.5-1.506m-12 0c-.829 0-1.5.674-1.5 1.506 0 .833.671 1.507 1.5 1.507s1.5-.674 1.5-1.507c0-.832-.671-1.506-1.5-1.506M428 11.26c-.829 0-1.5.674-1.5 1.506s.671 1.507 1.5 1.507 1.5-.675 1.5-1.507c0-.832-.671-1.506-1.5-1.506m-12 0c-.828 0-1.5.674-1.5 1.506s.672 1.507 1.5 1.507c.829 0 1.5-.675 1.5-1.507 0-.832-.671-1.506-1.5-1.506m-9 0c-.829 0-1.5.674-1.5 1.506s.671 1.507 1.5 1.507 1.5-.675 1.5-1.507c0-.832-.671-1.506-1.5-1.506m-13.5 0c-.829 0-1.5.674-1.5 1.506s.671 1.507 1.5 1.507 1.5-.675 1.5-1.507c0-.832-.671-1.506-1.5-1.506m-12 0c-.829 0-1.5.674-1.5 1.506s.671 1.507 1.5 1.507 1.5-.675 1.5-1.507c0-.832-.671-1.506-1.5-1.506M428-2.299c-.829 0-1.5.674-1.5 1.507 0 .832.671 1.506 1.5 1.506s1.5-.674 1.5-1.506c0-.833-.671-1.507-1.5-1.507m-12 0c-.828 0-1.5.674-1.5 1.507 0 .832.672 1.506 1.5 1.506.829 0 1.5-.674 1.5-1.506 0-.833-.671-1.507-1.5-1.507m-9 0c-.829 0-1.5.674-1.5 1.507 0 .832.671 1.506 1.5 1.506s1.5-.674 1.5-1.506c0-.833-.671-1.507-1.5-1.507m-13.5 0c-.829 0-1.5.674-1.5 1.507 0 .832.671 1.506 1.5 1.506S395 .04 395-.792c0-.833-.671-1.507-1.5-1.507m-12 0c-.829 0-1.5.674-1.5 1.507 0 .832.671 1.506 1.5 1.506S383 .04 383-.792c0-.833-.671-1.507-1.5-1.507M680.377 32.858c-20.115 0-41.701 10.725-62.58 21.098-20.747 10.308-42.2 20.965-62.014 20.965-39.26 0-79.502-41.456-79.903-41.874l-.88.852c.1.105 10.305 10.68 25.27 21.109 25.07 17.473 44.025 21.14 55.513 21.14 20.099 0 41.682-10.722 62.555-21.092 20.753-10.31 42.21-20.97 62.04-20.97h.19c4.851.016 9.837.693 14.825 1.834v-1.256c-4.982-1.123-9.965-1.788-14.82-1.806h-.196"/><path d="M680.377 24.97c-20.115 0-41.701 10.724-62.58 21.098-20.747 10.307-42.2 20.964-62.014 20.964-39.26 0-79.502-41.456-79.903-41.874l-.88.852c.1.105 10.305 10.68 25.27 21.108 25.07 17.474 44.025 21.142 55.513 21.142 20.099 0 41.682-10.723 62.555-21.093 20.753-10.31 42.21-20.97 62.04-20.97h.19c4.851.017 9.837.693 14.825 1.833v-1.255c-4.982-1.124-9.965-1.788-14.82-1.805h-.196"/><path d="M680.377 17.081c-20.115 0-41.701 10.724-62.58 21.098-20.747 10.307-42.2 20.965-62.014 20.965-39.26 0-79.502-41.457-79.903-41.875l-.88.852c.1.105 10.305 10.68 25.27 21.11 25.07 17.473 44.025 21.14 55.513 21.14 20.099 0 41.682-10.722 62.555-21.093 20.753-10.309 42.21-20.97 62.04-20.97h.19c4.851.017 9.837.693 14.825 1.834v-1.255c-4.982-1.124-9.965-1.788-14.82-1.806h-.196"/><path d="M680.377 9.192c-20.114 0-41.702 10.726-62.582 21.098-20.746 10.307-42.198 20.965-62.012 20.965-39.26 0-79.502-41.456-79.903-41.874l-.88.851c.1.107 10.305 10.68 25.27 21.109 25.07 17.473 44.025 21.142 55.513 21.142 20.099 0 41.681-10.724 62.555-21.093 20.752-10.31 42.21-20.97 62.04-20.97h.19c4.851.016 9.837.692 14.825 1.834v-1.256c-4.982-1.123-9.965-1.788-14.82-1.806h-.196"/><path d="M680.377 1.304c-20.115 0-41.701 10.724-62.58 21.098-20.747 10.307-42.2 20.964-62.014 20.964-39.26 0-79.502-41.456-79.903-41.874l-.88.852c.1.105 10.305 10.68 25.27 21.11 25.07 17.472 44.025 21.14 55.513 21.14 20.099 0 41.682-10.723 62.555-21.093 20.753-10.31 42.21-20.97 62.04-20.97h.19c4.851.017 9.837.693 14.825 1.833V3.109c-4.982-1.124-9.965-1.788-14.82-1.805h-.196"/><path d="M680.377-6.585c-20.114 0-41.702 10.725-62.582 21.098-20.746 10.306-42.198 20.965-62.012 20.965-39.26 0-79.502-41.457-79.903-41.875l-.88.852c.1.105 10.305 10.68 25.27 21.108 25.07 17.473 44.025 21.141 55.513 21.141 20.099 0 41.681-10.722 62.555-21.092 20.752-10.309 42.21-20.97 62.04-20.97h.19c4.851.017 9.837.693 14.825 1.833v-1.254c-4.982-1.124-9.965-1.789-14.82-1.806h-.196"/><path d="M680.377-14.474c-20.115 0-41.701 10.724-62.58 21.098-20.747 10.307-42.2 20.965-62.014 20.965-39.26 0-79.502-41.457-79.903-41.875l-.88.852c.1.105 10.305 10.68 25.27 21.109 25.07 17.474 44.025 21.141 55.513 21.141 20.099 0 41.682-10.723 62.555-21.092 20.753-10.31 42.21-20.97 62.04-20.97h.19c4.851.016 9.837.692 14.825 1.832v-1.254c-4.982-1.125-9.965-1.788-14.82-1.806h-.196"/><path d="M680.377-22.363c-20.115 0-41.701 10.725-62.58 21.098C597.05 9.042 575.596 19.7 555.782 19.7c-39.26 0-79.502-41.456-79.903-41.874l-.88.852c.1.105 10.305 10.679 25.27 21.109 25.07 17.473 44.025 21.14 55.513 21.14 20.099 0 41.682-10.722 62.555-21.092 20.753-10.31 42.21-20.97 62.04-20.97h.19c4.851.016 9.837.692 14.825 1.833v-1.255c-4.982-1.123-9.965-1.788-14.82-1.806h-.196"/></g></g></g></svg>